<svg width="184" height="352" viewBox="0 0 184 352" fill="none" xmlns="http://www.w3.org/2000/svg">
<path d="M1.78814e-06 343C1.78814e-06 347.5 4 351.5 8.5 351.5C13.5 351.5 16.5 348 16.5 343V61H73.5C92.5 61 109.5 65 120 82.5C122.5 88 124 94.5 124 102C124 132 101 145.5 73.5 145.5H61.5V119C61.5 114 58 111 53 111C47.5 111 45 113.5 45 119V154C45 159.5 47.5 162 53 162H73.5C110 162 140.5 141.5 140.5 102C140.5 74.5 126 56 99.5 47.5C91 45.5 82.5 44.5 73.5 44.5H8.5C4 44.5 1.78814e-06 48.5 1.78814e-06 53V343ZM53 100C57.5 100 60.5 98 61.5 94H62C62.5 91.5 62.5 89 61.5 86.5C60.5 84.5 58.5 83 53.5 82C49 82 46 84 44.5 88V88.5C44 91 44 93 45 95C46 97.5 48 99 50.5 99.5L53 100ZM53 313C57.5 313 61.5 309.5 61.5 305V206H92C98.5 206 107 204.5 117.5 201C162.5 187.5 184 143 184 98.5C184 73 177 48 160.5 28.5C142 8.99998 118.5 0.49997 92 0.49997H52.5C47.5 0.49997 44 3.49999 44 8.49999C44 13 48 17 52.5 17H92C140 17 167.5 50.5 167.5 98.5C167.5 131 157.5 156 137 172.5C124.5 182 108 189.5 92 189.5H53C47.5 189.5 45 192 45 197.5V305C45 310.5 47.5 313 53 313Z" fill="url(#paint0_linear)"/>
<defs>
<linearGradient id="paint0_linear" x1="-37.7961" y1="178.5" x2="220" y2="178.5" gradientUnits="userSpaceOnUse">
<stop stop-color="#FF6B00"/>
<stop offset="1" stop-color="#FF004D"/>
</linearGradient>
</defs>
</svg>
