<svg width="435" height="326" viewBox="0 0 435 326" fill="none" xmlns="http://www.w3.org/2000/svg">
<path fill-rule="evenodd" clip-rule="evenodd" d="M347.563 223.816L354.216 209.556L338.774 212.583C327.356 214.822 315.184 216.76 302.388 218.356C304.922 210.825 303.938 202.307 299.444 195.544C319.628 193.031 338.049 189.651 354.142 185.619L359.549 184.264L360.151 178.723C360.712 173.556 361 168.31 361 163C361 83.471 296.529 19 217 19C137.471 19 73 83.471 73 163C73 168.077 73.2631 173.096 73.7768 178.042L74.3545 183.604L79.7758 184.972C114.587 193.76 160.484 199.502 211.723 199.969L219.818 200.043L219.769 182.03C219.761 178.951 223.089 177.017 225.76 178.55L274.481 206.503C277.152 208.035 277.163 211.884 274.5 213.431L225.931 241.649C223.269 243.196 219.93 241.28 219.922 238.201L219.881 223.04L211.97 222.972C168.654 222.603 128.519 218.572 94.9343 211.928L79.5666 208.887L86.1138 223.119C108.882 272.612 158.917 307 217 307C274.81 307 324.647 272.934 347.563 223.816ZM379.002 202.483L374.917 203.785L373.738 207.907C354.239 276.098 291.437 326 217 326C142.312 326 79.3369 275.76 60.066 207.215L58.9032 203.079L54.8128 201.764C36.5011 195.878 22.3327 189.166 12.9118 182.151C3.3368 175.022 0 168.642 0 163.5C0 158.304 3.28229 151.973 12.7201 144.927C22.0365 137.973 36.1121 131.315 54.4784 125.425L58.6087 124.101L59.7523 119.917C78.6448 50.7948 141.901 0 217 0C292.228 0 355.572 50.9689 374.344 120.272L375.483 124.477L379.634 125.801C398.121 131.7 412.297 138.375 421.682 145.355C431.193 152.427 434.5 158.785 434.5 164C434.5 169.174 431.118 175.603 421.413 182.782C411.869 189.84 397.523 196.584 379.002 202.483ZM391.219 154.585L379.919 149.611L379.997 161.957C379.998 162.129 379.999 162.3 379.999 162.471C380 162.597 380 162.723 380 162.849L380 163C380 163.989 379.991 164.976 379.974 165.961L379.751 178.46L391.194 173.426C392.9 172.676 394.511 171.927 396.028 171.184L410.694 164L396.028 156.816C394.519 156.076 392.916 155.332 391.219 154.585ZM54.0051 161.69L54.1028 149.268L42.7531 154.319C41.2506 154.987 39.8238 155.653 38.4718 156.316L23.8058 163.5L38.4718 170.684C39.8272 171.348 41.2579 172.016 42.7645 172.687L54.1858 177.767L54.0154 165.268C54.0052 164.513 54 163.757 54 163C54 162.563 54.0017 162.127 54.0051 161.69Z" fill="#FF6B00"/>
</svg>
