<svg width="494" height="101" viewBox="0 0 494 101" fill="none" xmlns="http://www.w3.org/2000/svg">
<path d="M0.600001 97.04C0.600001 98.3 1.72 99.42 2.98 99.42C4.38 99.42 5.22 98.44 5.22 97.04V18.08H21.18C26.5 18.08 31.26 19.2 34.2 24.1C34.9 25.64 35.32 27.46 35.32 29.56C35.32 37.96 28.88 41.74 21.18 41.74H17.82V34.32C17.82 32.92 16.84 32.08 15.44 32.08C13.9 32.08 13.2 32.78 13.2 34.32V44.12C13.2 45.66 13.9 46.36 15.44 46.36H21.18C31.4 46.36 39.94 40.62 39.94 29.56C39.94 21.86 35.88 16.68 28.46 14.3C26.08 13.74 23.7 13.46 21.18 13.46H2.98C1.72 13.46 0.600001 14.58 0.600001 15.84V97.04ZM15.44 29C16.7 29 17.54 28.44 17.82 27.32H17.96C18.1 26.62 18.1 25.92 17.82 25.22C17.54 24.66 16.98 24.24 15.58 23.96C14.32 23.96 13.48 24.52 13.06 25.64V25.78C12.92 26.48 12.92 27.04 13.2 27.6C13.48 28.3 14.04 28.72 14.74 28.86L15.44 29ZM15.44 88.64C16.7 88.64 17.82 87.66 17.82 86.4V58.68H26.36C28.18 58.68 30.56 58.26 33.5 57.28C46.1 53.5 52.12 41.04 52.12 28.58C52.12 21.44 50.16 14.44 45.54 8.98C40.36 3.51999 33.78 1.13999 26.36 1.13999H15.3C13.9 1.13999 12.92 1.98 12.92 3.38C12.92 4.64 14.04 5.76 15.3 5.76H26.36C39.8 5.76 47.5 15.14 47.5 28.58C47.5 37.68 44.7 44.68 38.96 49.3C35.46 51.96 30.84 54.06 26.36 54.06H15.44C13.9 54.06 13.2 54.76 13.2 56.3V86.4C13.2 87.94 13.9 88.64 15.44 88.64ZM81.8416 95.64C81.8416 96.9 82.9616 98.02 84.2216 98.02H118.662C120.062 98.02 120.902 97.04 120.902 95.64C120.902 94.1 120.202 93.4 118.662 93.4H84.2216C82.8216 93.4 81.8416 94.24 81.8416 95.64ZM118.802 86.12C120.062 86.12 120.902 85.56 121.182 84.44V84.3C121.462 83.6 121.462 83.04 121.182 82.34C120.902 81.64 120.342 81.22 118.802 80.94C117.682 80.94 116.842 81.5 116.422 82.62V82.76C116.282 83.46 116.282 84.02 116.702 84.72C117.122 85.42 117.822 85.84 118.802 86.12ZM81.7016 72.4C81.7016 73.94 82.4016 74.64 83.9416 74.64C85.2016 74.64 86.3216 73.66 86.3216 72.4V15.14C86.3216 13.74 85.3416 12.9 83.9416 12.9C82.4016 12.9 81.7016 13.6 81.7016 15.14V72.4ZM110.962 85.84C112.502 85.84 113.342 85.14 113.342 83.6C113.342 82.06 112.502 81.22 110.962 81.22H73.7216V2.54C73.7216 0.999993 72.8816 0.299994 71.3416 0.299994C69.8016 0.299994 69.1016 0.999993 69.1016 2.54V83.6C69.1016 85.14 69.8016 85.84 71.3416 85.84H110.962ZM148.993 51.96C148.993 64.42 154.173 77.86 165.093 84.58C165.373 84.72 165.793 84.86 166.353 84.86C167.333 84.86 167.893 84.58 168.313 83.88C168.733 83.32 168.733 82.76 168.593 82.06C168.453 81.5 168.033 81.08 167.473 80.66C157.953 74.5 153.613 63.02 153.613 51.96V15.98C153.613 14.58 152.773 13.6 151.373 13.6C150.113 13.6 148.993 14.72 148.993 15.98V51.96ZM136.673 51.68C136.673 74.22 151.373 100.68 176.433 100.68C177.693 100.68 178.813 99.56 178.813 98.3V88.22C196.313 86.54 203.873 67.5 203.873 51.96V12.9C203.873 11.36 203.173 10.52 201.633 10.52C200.093 10.52 199.253 11.36 199.253 12.9V51.96C199.253 65.82 192.813 83.74 176.433 83.74C175.173 83.74 174.193 84.86 174.193 86.12V95.92C153.053 93.96 141.293 71 141.293 51.68V4.77999C141.293 3.38 140.453 2.39999 139.053 2.39999C137.793 2.39999 136.673 3.51999 136.673 4.77999V51.68ZM186.513 95.36C185.953 95.5 185.533 95.92 185.253 96.48C184.973 97.04 184.973 97.6 185.253 98.3C185.533 99.14 186.233 99.7 188.193 99.56C206.673 93.4 216.333 71 216.333 52.8V4.91999C216.333 3.65999 215.213 2.54 213.953 2.54C212.693 2.54 211.713 3.65999 211.713 4.91999V52.8C211.713 69.6 203.173 89.2 186.513 95.36ZM201.633 2.39999C200.513 2.39999 199.673 2.95999 199.253 4.08V4.21999C199.113 4.91999 199.113 5.47999 199.533 6.17999C199.953 6.87999 200.653 7.3 201.633 7.57999C202.753 7.57999 203.593 7.02 204.013 5.9V5.76C204.153 5.06 204.153 4.5 203.873 3.8C203.593 3.24 203.173 2.81999 202.473 2.54L201.633 2.39999ZM263.717 63.02C263.717 61.48 263.017 60.64 261.477 60.64C259.937 60.64 259.097 61.48 259.097 63.02V96.76C259.097 98.02 260.217 99 261.477 99C263.017 99 263.717 98.3 263.717 96.76V63.02ZM263.577 3.65999C263.577 2.12 262.877 1.28 261.337 1.28H233.477C231.937 1.28 231.097 2.12 231.097 3.65999C231.097 5.2 231.937 5.9 233.477 5.9H258.957V50.28C258.957 51.54 260.077 52.52 261.337 52.52H271.697V85.98C271.697 87.24 272.817 88.36 274.077 88.36C275.617 88.36 276.317 87.52 276.317 85.98V50.28C276.317 48.88 275.477 47.9 274.077 47.9H263.577V3.65999ZM233.477 13.6C232.217 13.6 231.097 14.72 231.097 15.98C231.097 17.52 231.937 18.22 233.477 18.22H250.557C252.097 18.22 252.797 17.52 252.797 15.98C252.797 14.58 251.957 13.6 250.557 13.6H233.477ZM274.077 1.28C272.537 1.28 271.697 2.12 271.697 3.65999C271.697 4.91999 272.817 5.9 274.077 5.9H292.277C293.817 5.9 294.517 5.2 294.517 3.65999C294.517 2.12 293.817 1.28 292.277 1.28H274.077ZM271.697 37.82C271.697 39.08 272.817 40.06 274.077 40.06C275.617 40.06 276.317 39.36 276.317 37.82V18.22H299.977C301.517 18.22 302.357 17.52 302.357 15.98C302.357 14.44 301.517 13.6 299.977 13.6H274.077C272.817 13.6 271.697 14.72 271.697 15.98V37.82ZM300.117 0.999993C298.857 0.999993 298.017 1.55999 297.737 2.68L297.597 2.81999C297.457 3.51999 297.457 4.08 297.877 4.64C298.297 5.34 298.997 5.76 299.977 6.17999C301.237 6.17999 302.077 5.61999 302.357 4.35999H302.497C302.637 3.65999 302.637 3.09999 302.357 2.39999C302.077 1.69999 301.517 1.28 300.817 1.13999L300.117 0.999993ZM313.912 49.44C313.912 74.78 332.672 98.44 359.272 98.44C385.592 98.44 404.492 75.06 404.492 49.44C404.492 24.24 385.732 0.439992 359.272 0.439992C357.732 0.439992 356.892 1.13999 356.892 2.68V12.76C338.412 13.88 326.092 31.38 326.092 49.16C326.092 67.78 339.532 85.56 359.272 85.56C379.012 85.56 392.592 68.2 392.592 49.16C392.592 34.74 385.032 20.46 371.032 15.14C369.912 15.14 369.212 15.56 368.932 16.54C368.652 17.1 368.652 17.66 368.932 18.22C369.072 18.92 369.492 19.34 370.052 19.48C381.952 24.66 387.972 36.56 387.972 49.16C387.972 65.4 376.632 80.94 359.272 80.94C342.332 80.94 330.712 65.54 330.712 49.16C330.712 32.92 341.912 17.24 359.272 17.24C360.812 17.24 361.512 16.54 361.512 15V5.06C384.332 6.73999 399.872 27.04 399.872 49.44C399.872 71.98 383.212 93.82 359.272 93.82C335.612 93.82 318.532 72.4 318.532 49.44C318.532 32.78 326.792 17.38 341.632 9.39999C342.192 9.12 342.612 8.69999 342.892 7.99999C343.032 7.43999 343.032 6.87999 342.612 6.17999C342.192 5.47999 341.492 5.06 340.652 5.06C340.092 5.06 339.672 5.2 339.532 5.34C323.432 13.6 313.912 31.52 313.912 49.44ZM345.552 3.65999C345.272 4.35999 345.272 4.91999 345.692 5.47999C346.112 6.17999 346.812 6.6 347.932 7.02C349.052 7.02 349.892 6.46 350.312 5.2C350.452 4.5 350.452 3.94 350.172 3.24C349.892 2.54 349.472 2.12 347.932 1.84C346.672 1.84 345.832 2.39999 345.552 3.51999V3.65999ZM435.694 50.42C435.694 48.88 434.854 48.04 433.314 48.04C431.774 48.04 431.074 48.88 431.074 50.42V90.04C431.074 91.58 431.774 92.28 433.314 92.28C434.854 92.28 435.694 91.58 435.694 90.04V50.42ZM420.994 99.28C421.694 99.28 422.254 99.14 422.674 98.58C423.094 98.16 423.374 97.74 423.374 97.04V11.64L476.714 98.16C477.134 98.86 477.834 99.28 478.674 99.28C478.954 99.28 479.374 99.14 479.934 99C481.194 98.16 481.474 97.04 480.634 95.78L422.954 2.25999C422.254 1.28 421.554 1.28 420.434 1.28C419.314 1.55999 418.754 2.25999 418.754 3.51999V97.04C418.754 98.58 419.454 99.28 420.994 99.28ZM476.714 71.28C477.134 71.98 478.114 72.26 479.374 72.26C480.494 71.98 481.054 71.28 481.054 70.02V3.51999C481.054 2.25999 479.934 1.13999 478.674 1.13999C477.414 1.13999 476.434 2.25999 476.434 3.51999V62.04L443.114 8.98C442.694 8.28 442.134 7.99999 441.154 7.99999C440.594 7.99999 440.174 8.13999 439.894 8.28C438.634 9.12 438.354 10.24 439.194 11.5L476.714 71.28ZM490.994 8.98C489.734 8.98 488.754 10.1 488.754 11.36V97.04C488.754 98.58 489.454 99.28 490.994 99.28C492.534 99.28 493.374 98.58 493.374 97.04V11.36C493.374 9.82 492.534 8.98 490.994 8.98ZM490.994 6.04C492.254 6.04 493.094 5.47999 493.374 4.35999L493.514 4.21999C493.934 2.68 493.374 1.69999 491.134 0.859995C489.874 0.859995 489.034 1.42 488.754 2.68H488.614C488.474 3.38 488.474 3.94 488.754 4.64C489.034 5.34 489.594 5.76 490.294 5.9L490.994 6.04Z" fill="url(#paint0_linear)"/>
<defs>
<linearGradient id="paint0_linear" x1="2" y1="51" x2="503" y2="51" gradientUnits="userSpaceOnUse">
<stop stop-color="#FF6B00"/>
<stop offset="1" stop-color="#FF004D"/>
</linearGradient>
</defs>
</svg>
